<?xml version="1.0" encoding="utf-8"?>
<!-- Generator: Adobe Illustrator 17.0.0, SVG Export Plug-In . SVG Version: 6.00 Build 0)  -->
<!DOCTYPE svg PUBLIC "-//W3C//DTD SVG 1.1//EN" "http://www.w3.org/Graphics/SVG/1.1/DTD/svg11.dtd">
<svg version="1.1" id="Layer_1" xmlns="http://www.w3.org/2000/svg" xmlns:xlink="http://www.w3.org/1999/xlink" x="0px" y="0px"
	 width="1051.908px" height="108px" viewBox="0 0 1051.908 108" enable-background="new 0 0 1051.908 108" xml:space="preserve">
<g>
	<path fill="#231F20" d="M11.88,96.237v-85.2h34.68c3.438,0,6.639,0.741,9.6,2.22c2.958,1.481,5.499,3.44,7.62,5.88
		c2.119,2.441,3.78,5.201,4.98,8.28c1.2,3.081,1.8,6.221,1.8,9.42c0,3.281-0.521,6.44-1.56,9.48c-1.041,3.041-2.52,5.741-4.44,8.1
		c-1.92,2.36-4.221,4.28-6.9,5.76c-2.682,1.481-5.622,2.34-8.82,2.58l21.6,33.48h-2.88l-21.6-33.48H14.28v33.48H11.88z
		 M14.28,60.357H47.4c3.199,0,6.079-0.679,8.64-2.04c2.56-1.359,4.74-3.139,6.54-5.34c1.8-2.2,3.18-4.699,4.14-7.5
		c0.96-2.8,1.44-5.68,1.44-8.64c0-3.04-0.561-5.959-1.68-8.76c-1.121-2.799-2.661-5.28-4.62-7.44c-1.961-2.16-4.26-3.9-6.9-5.22
		c-2.64-1.32-5.441-1.98-8.4-1.98H14.28V60.357z"/>
	<path fill="#231F20" d="M101.041,97.438c-2.801,0-5.441-0.501-7.92-1.5c-2.48-1-4.62-2.359-6.42-4.08
		c-1.8-1.72-3.221-3.739-4.26-6.06c-1.041-2.319-1.56-4.8-1.56-7.44c0-2.64,0.619-5.04,1.86-7.2c1.239-2.16,3-4.02,5.28-5.58
		c2.28-1.56,4.999-2.779,8.16-3.66c3.159-0.879,6.619-1.32,10.38-1.32c3.6,0,7.24,0.3,10.92,0.9c3.679,0.6,7,1.461,9.96,2.58v-7.08
		c0-3.199-0.48-6.139-1.44-8.82c-0.96-2.679-2.34-4.959-4.14-6.84c-1.8-1.879-3.96-3.339-6.48-4.38
		c-2.52-1.039-5.301-1.56-8.34-1.56c-3.041,0-6.281,0.66-9.72,1.98c-3.441,1.32-6.921,3.221-10.44,5.7l-1.44-1.92
		c7.999-5.439,15.199-8.16,21.6-8.16c3.439,0,6.58,0.561,9.42,1.68c2.839,1.121,5.239,2.721,7.2,4.8
		c1.959,2.081,3.48,4.601,4.56,7.56c1.08,2.961,1.62,6.281,1.62,9.96v34.44c0,1.601,0.639,2.4,1.92,2.4v2.4
		c-0.881,0-1.44-0.079-1.68-0.24c-0.8-0.318-1.44-0.9-1.92-1.74s-0.72-1.779-0.72-2.82v-5.76c-2.88,3.761-6.642,6.66-11.28,8.7
		C111.521,96.417,106.48,97.438,101.041,97.438z M101.041,95.037c5.359,0,10.26-0.999,14.7-3c4.44-1.999,7.74-4.68,9.9-8.04
		c1.2-1.68,1.8-3.318,1.8-4.92v-12.36c-6.401-2.479-13.361-3.72-20.88-3.72c-3.521,0-6.701,0.36-9.54,1.08
		c-2.84,0.72-5.28,1.761-7.32,3.12c-2.04,1.361-3.621,2.981-4.74,4.86c-1.121,1.881-1.68,3.981-1.68,6.3
		c0,2.321,0.459,4.5,1.38,6.54c0.919,2.04,2.179,3.821,3.78,5.34c1.599,1.521,3.48,2.7,5.64,3.54
		C96.241,94.617,98.561,95.037,101.041,95.037z"/>
	<path fill="#231F20" d="M167.28,97.438c-9.681,0-17.601-3.36-23.76-10.08l1.8-1.56c3.199,3.12,6.54,5.441,10.02,6.96
		c3.48,1.521,7.459,2.28,11.94,2.28c6.159,0,11.161-1.32,15-3.96c3.84-2.64,5.76-6.36,5.76-11.16c0-2.239-0.48-4.099-1.441-5.58
		c-0.959-1.479-2.359-2.76-4.199-3.84c-1.842-1.08-4.121-1.999-6.84-2.76c-2.721-0.759-5.801-1.54-9.24-2.34
		c-3.36-0.799-6.281-1.54-8.76-2.22c-2.48-0.679-4.541-1.54-6.18-2.58c-1.641-1.039-2.88-2.34-3.72-3.9s-1.26-3.579-1.26-6.06
		c0-3.12,0.6-5.779,1.8-7.98c1.2-2.199,2.799-4.02,4.8-5.46c1.999-1.44,4.32-2.5,6.96-3.18c2.64-0.679,5.439-1.02,8.4-1.02
		c5.04,0,9.339,0.861,12.899,2.58c3.559,1.721,6.02,3.861,7.381,6.42l-2.16,0.96c-1.521-2.479-4.002-4.359-7.439-5.64
		c-3.441-1.279-7.16-1.92-11.161-1.92c-2.561,0-5,0.281-7.32,0.84c-2.321,0.561-4.361,1.44-6.12,2.64
		c-1.76,1.2-3.141,2.741-4.14,4.62c-1.001,1.881-1.5,4.14-1.5,6.78c0,2.081,0.339,3.78,1.02,5.1c0.679,1.32,1.74,2.42,3.18,3.3
		c1.44,0.881,3.279,1.641,5.52,2.28c2.239,0.641,4.879,1.32,7.92,2.04c3.679,0.881,7.021,1.722,10.021,2.52
		c3,0.801,5.52,1.8,7.561,3c2.039,1.2,3.617,2.661,4.738,4.38c1.121,1.721,1.682,3.941,1.682,6.66c0,2.721-0.561,5.181-1.682,7.38
		c-1.121,2.201-2.68,4.08-4.68,5.64s-4.439,2.76-7.32,3.6C173.88,97.017,170.718,97.438,167.28,97.438z"/>
	<path fill="#231F20" d="M295.198,96.237h-2.399v-34.68c0-8.958-1.341-15.559-4.021-19.8c-2.681-4.239-6.899-6.36-12.66-6.36
		c-2.96,0-5.741,0.54-8.34,1.62c-2.601,1.08-4.961,2.58-7.08,4.5c-2.12,1.92-3.96,4.2-5.52,6.84c-1.561,2.64-2.741,5.52-3.54,8.64
		v39.24h-2.4v-34.68c0-9.039-1.319-15.66-3.96-19.86c-2.64-4.2-6.84-6.3-12.6-6.3c-2.88,0-5.621,0.521-8.22,1.56
		c-2.601,1.041-4.962,2.501-7.08,4.38c-2.121,1.88-3.98,4.14-5.58,6.78c-1.602,2.64-2.841,5.562-3.72,8.76v39.36h-2.4v-62.28h2.4
		v16.08c2.719-5.439,6.18-9.639,10.38-12.6c4.199-2.959,8.778-4.44,13.739-4.44c5.28,0,9.601,1.641,12.96,4.92
		c3.36,3.281,5.359,7.68,6,13.2c6.24-12.079,14.56-18.12,24.96-18.12c6.48,0,11.28,2.34,14.4,7.02c3.12,4.68,4.68,11.861,4.68,21.54
		V96.237z"/>
	<path fill="#231F20" d="M333.958,97.438c-13.361,0-20.04-9.52-20.04-28.56v-34.92h2.399v34.92c0,17.441,5.88,26.16,17.641,26.16
		c2.958,0,5.88-0.54,8.76-1.62c2.88-1.08,5.52-2.56,7.92-4.44c2.4-1.879,4.5-4.14,6.3-6.78s3.18-5.52,4.14-8.64v-39.6h2.4v57.48
		c0,1.601,0.64,2.4,1.92,2.4v2.4c-0.881,0-1.439-0.079-1.68-0.24c-0.801-0.318-1.44-0.9-1.92-1.74
		c-0.48-0.84-0.721-1.779-0.721-2.82v-11.04c-2.72,5.28-6.521,9.44-11.399,12.48C344.797,95.918,339.557,97.438,333.958,97.438z"/>
	<path fill="#231F20" d="M401.876,97.438c-9.681,0-17.601-3.36-23.76-10.08l1.8-1.56c3.198,3.12,6.54,5.441,10.02,6.96
		c3.48,1.521,7.459,2.28,11.94,2.28c6.159,0,11.16-1.32,15-3.96c3.84-2.64,5.76-6.36,5.76-11.16c0-2.239-0.479-4.099-1.44-5.58
		c-0.96-1.479-2.36-2.76-4.199-3.84c-1.842-1.08-4.121-1.999-6.84-2.76c-2.721-0.759-5.802-1.54-9.24-2.34
		c-3.36-0.799-6.281-1.54-8.76-2.22c-2.481-0.679-4.542-1.54-6.181-2.58c-1.641-1.039-2.88-2.34-3.72-3.9s-1.26-3.579-1.26-6.06
		c0-3.12,0.6-5.779,1.8-7.98c1.2-2.199,2.799-4.02,4.8-5.46c1.999-1.44,4.32-2.5,6.96-3.18c2.64-0.679,5.439-1.02,8.4-1.02
		c5.04,0,9.339,0.861,12.899,2.58c3.559,1.721,6.02,3.861,7.38,6.42l-2.159,0.96c-1.521-2.479-4.002-4.359-7.44-5.64
		c-3.44-1.279-7.16-1.92-11.16-1.92c-2.562,0-5,0.281-7.319,0.84c-2.321,0.561-4.361,1.44-6.12,2.64
		c-1.761,1.2-3.141,2.741-4.141,4.62c-1.001,1.881-1.5,4.14-1.5,6.78c0,2.081,0.34,3.78,1.021,5.1c0.679,1.32,1.74,2.42,3.18,3.3
		c1.44,0.881,3.279,1.641,5.521,2.28c2.238,0.641,4.878,1.32,7.92,2.04c3.679,0.881,7.02,1.722,10.02,2.52
		c3,0.801,5.521,1.8,7.561,3c2.04,1.2,3.618,2.661,4.739,4.38c1.12,1.721,1.681,3.941,1.681,6.66c0,2.721-0.561,5.181-1.681,7.38
		c-1.121,2.201-2.681,4.08-4.68,5.64c-2.001,1.56-4.44,2.76-7.32,3.6S405.314,97.438,401.876,97.438z"/>
	<path fill="#231F20" d="M467.273,53.037c0-5.119,0.9-10.2,2.7-15.24s4.398-9.58,7.8-13.62c3.399-4.039,7.6-7.32,12.601-9.84
		c4.998-2.52,10.698-3.78,17.1-3.78c7.6,0,14.04,1.74,19.32,5.22c5.279,3.48,9.198,7.94,11.76,13.38l-2.28,0.72
		c-1.68-3.12-3.62-5.76-5.819-7.92c-2.202-2.16-4.602-3.9-7.2-5.22c-2.601-1.32-5.28-2.28-8.04-2.88s-5.501-0.9-8.22-0.9
		c-5.922,0-11.202,1.181-15.841,3.54c-4.641,2.361-8.561,5.46-11.76,9.3c-3.2,3.84-5.621,8.181-7.26,13.02
		c-1.641,4.841-2.46,9.701-2.46,14.58c0,5.441,0.979,10.641,2.939,15.6c1.96,4.961,4.639,9.341,8.04,13.14
		c3.399,3.801,7.38,6.821,11.94,9.06c4.56,2.241,9.479,3.36,14.76,3.36c2.8,0,5.68-0.36,8.641-1.08c2.958-0.72,5.819-1.8,8.579-3.24
		c2.761-1.44,5.319-3.3,7.681-5.58c2.358-2.28,4.38-4.98,6.06-8.1l2.28,0.6c-1.44,3.201-3.401,6.042-5.88,8.52
		c-2.48,2.48-5.241,4.56-8.28,6.24c-3.041,1.68-6.261,2.94-9.66,3.78c-3.401,0.84-6.701,1.26-9.899,1.26
		c-5.761,0-11.082-1.279-15.96-3.84c-4.881-2.559-9.061-5.898-12.54-10.02c-3.48-4.119-6.201-8.799-8.16-14.04
		C468.252,63.818,467.273,58.479,467.273,53.037z"/>
	<path fill="#231F20" d="M581.872,36.357c-5.921,0.24-11.021,2.16-15.3,5.76c-4.28,3.6-7.26,8.52-8.939,14.76v39.36h-2.4v-62.28h2.4
		v16.08c2.159-4.398,5.059-8.019,8.699-10.86c3.64-2.839,7.5-4.5,11.58-4.98c0.799-0.079,1.54-0.139,2.221-0.18
		c0.679-0.039,1.26-0.06,1.739-0.06V36.357z"/>
	<path fill="#231F20" d="M615.954,97.438c-4.08,0-7.92-0.861-11.521-2.58c-3.6-1.72-6.74-4.039-9.42-6.96
		c-2.681-2.919-4.8-6.339-6.359-10.26c-1.561-3.918-2.341-8.04-2.341-12.36c0-4.399,0.78-8.539,2.341-12.42
		c1.56-3.879,3.699-7.299,6.42-10.26c2.719-2.958,5.88-5.299,9.479-7.02c3.601-1.719,7.399-2.58,11.4-2.58
		c3.999,0,7.8,0.861,11.399,2.58c3.601,1.721,6.739,4.062,9.42,7.02c2.679,2.961,4.818,6.381,6.42,10.26
		c1.599,3.881,2.399,8.021,2.399,12.42c0,4.32-0.78,8.441-2.34,12.36c-1.56,3.921-3.681,7.341-6.36,10.26
		c-2.681,2.921-5.819,5.24-9.419,6.96C623.874,96.577,620.034,97.438,615.954,97.438z M588.714,65.517c0,4.001,0.72,7.8,2.16,11.4
		c1.439,3.6,3.379,6.74,5.82,9.42c2.439,2.681,5.299,4.8,8.58,6.36c3.279,1.56,6.798,2.34,10.56,2.34c3.679,0,7.18-0.798,10.5-2.4
		c3.318-1.599,6.24-3.759,8.759-6.48c2.521-2.719,4.5-5.88,5.94-9.48c1.439-3.6,2.16-7.44,2.16-11.52c0-4-0.721-7.8-2.16-11.4
		c-1.44-3.6-3.401-6.759-5.88-9.48c-2.481-2.719-5.381-4.879-8.7-6.48c-3.32-1.6-6.821-2.4-10.5-2.4c-3.681,0-7.182,0.8-10.5,2.4
		c-3.32,1.601-6.222,3.78-8.7,6.54c-2.48,2.76-4.44,5.96-5.88,9.6C589.434,57.579,588.714,61.438,588.714,65.517z"/>
	<path fill="#231F20" d="M709.554,96.237h-2.4v-34.68c0-9.12-1.26-15.759-3.78-19.92c-2.52-4.159-6.581-6.24-12.18-6.24
		c-3.041,0-6.021,0.54-8.94,1.62c-2.921,1.08-5.621,2.58-8.1,4.5c-2.48,1.92-4.641,4.2-6.48,6.84c-1.841,2.64-3.2,5.48-4.079,8.52
		v39.36h-2.4v-62.28h2.4v16.08c1.278-2.479,2.919-4.779,4.92-6.9c1.998-2.119,4.199-3.918,6.6-5.4c2.4-1.479,4.959-2.64,7.68-3.48
		c2.719-0.84,5.479-1.26,8.28-1.26c6.399,0,11.079,2.301,14.04,6.9c2.959,4.601,4.44,11.82,4.44,21.66V96.237z"/>
	<path fill="#231F20" d="M747.112,97.438c-9.681,0-17.601-3.36-23.76-10.08l1.8-1.56c3.198,3.12,6.54,5.441,10.02,6.96
		c3.48,1.521,7.459,2.28,11.94,2.28c6.159,0,11.16-1.32,15-3.96c3.84-2.64,5.76-6.36,5.76-11.16c0-2.239-0.479-4.099-1.44-5.58
		c-0.96-1.479-2.36-2.76-4.199-3.84c-1.842-1.08-4.121-1.999-6.84-2.76c-2.721-0.759-5.802-1.54-9.24-2.34
		c-3.36-0.799-6.281-1.54-8.76-2.22c-2.481-0.679-4.542-1.54-6.181-2.58c-1.641-1.039-2.88-2.34-3.72-3.9s-1.26-3.579-1.26-6.06
		c0-3.12,0.6-5.779,1.8-7.98c1.2-2.199,2.799-4.02,4.8-5.46c1.999-1.44,4.32-2.5,6.96-3.18c2.64-0.679,5.439-1.02,8.4-1.02
		c5.04,0,9.339,0.861,12.899,2.58c3.559,1.721,6.02,3.861,7.38,6.42l-2.159,0.96c-1.521-2.479-4.002-4.359-7.44-5.64
		c-3.44-1.279-7.16-1.92-11.16-1.92c-2.562,0-5,0.281-7.319,0.84c-2.321,0.561-4.361,1.44-6.12,2.64
		c-1.761,1.2-3.141,2.741-4.141,4.62c-1.001,1.881-1.5,4.14-1.5,6.78c0,2.081,0.34,3.78,1.021,5.1c0.679,1.32,1.74,2.42,3.18,3.3
		c1.44,0.881,3.279,1.641,5.521,2.28c2.238,0.641,4.878,1.32,7.92,2.04c3.679,0.881,7.02,1.722,10.02,2.52
		c3,0.801,5.521,1.8,7.561,3c2.04,1.2,3.618,2.661,4.739,4.38c1.12,1.721,1.681,3.941,1.681,6.66c0,2.721-0.561,5.181-1.681,7.38
		c-1.121,2.201-2.681,4.08-4.68,5.64c-2.001,1.56-4.44,2.76-7.32,3.6S750.55,97.438,747.112,97.438z"/>
	<path fill="#231F20" d="M809.751,93.357c-1.2,0.8-2.301,1.4-3.301,1.8c-1.001,0.401-2.18,0.78-3.539,1.14
		c-1.361,0.36-2.881,0.54-4.561,0.54c-2.88,0-5.4-0.879-7.56-2.64c-2.16-1.759-3.24-4.08-3.24-6.96v-50.88h-9v-2.4h9v-21.72h2.399
		v21.72h15v2.4h-15v50.88c0.16,2.321,1.08,4.101,2.761,5.34c1.68,1.241,3.559,1.86,5.64,1.86c1.359,0,2.64-0.139,3.84-0.42
		c1.2-0.279,2.26-0.6,3.181-0.96c0.918-0.36,1.639-0.699,2.159-1.02c0.52-0.318,0.819-0.519,0.9-0.6L809.751,93.357z"/>
	<path fill="#231F20" d="M847.55,36.357c-5.921,0.24-11.021,2.16-15.3,5.76c-4.28,3.6-7.26,8.52-8.939,14.76v39.36h-2.4v-62.28h2.4
		v16.08c2.159-4.398,5.059-8.019,8.699-10.86c3.64-2.839,7.5-4.5,11.58-4.98c0.799-0.079,1.54-0.139,2.221-0.18
		c0.679-0.039,1.26-0.06,1.739-0.06V36.357z"/>
	<path fill="#231F20" d="M873.592,97.438c-2.801,0-5.441-0.501-7.92-1.5c-2.48-1-4.62-2.359-6.42-4.08
		c-1.8-1.72-3.222-3.739-4.26-6.06c-1.041-2.319-1.561-4.8-1.561-7.44c0-2.64,0.619-5.04,1.86-7.2c1.239-2.16,3-4.02,5.28-5.58
		c2.279-1.56,4.998-2.779,8.16-3.66c3.159-0.879,6.618-1.32,10.38-1.32c3.6,0,7.239,0.3,10.92,0.9c3.679,0.6,6.999,1.461,9.96,2.58
		v-7.08c0-3.199-0.48-6.139-1.44-8.82c-0.96-2.679-2.34-4.959-4.14-6.84c-1.8-1.879-3.96-3.339-6.48-4.38
		c-2.52-1.039-5.301-1.56-8.34-1.56c-3.041,0-6.281,0.66-9.72,1.98c-3.44,1.32-6.921,3.221-10.44,5.7l-1.439-1.92
		c7.998-5.439,15.198-8.16,21.6-8.16c3.438,0,6.579,0.561,9.42,1.68c2.839,1.121,5.239,2.721,7.2,4.8
		c1.959,2.081,3.48,4.601,4.56,7.56c1.08,2.961,1.62,6.281,1.62,9.96v34.44c0,1.601,0.64,2.4,1.92,2.4v2.4
		c-0.881,0-1.439-0.079-1.68-0.24c-0.801-0.318-1.439-0.9-1.92-1.74c-0.479-0.84-0.72-1.779-0.72-2.82v-5.76
		c-2.88,3.761-6.642,6.66-11.28,8.7C884.072,96.417,879.032,97.438,873.592,97.438z M873.592,95.037c5.359,0,10.26-0.999,14.7-3
		c4.44-1.999,7.74-4.68,9.9-8.04c1.199-1.68,1.8-3.318,1.8-4.92v-12.36c-6.401-2.479-13.361-3.72-20.88-3.72
		c-3.521,0-6.701,0.36-9.54,1.08c-2.841,0.72-5.28,1.761-7.32,3.12c-2.04,1.361-3.621,2.981-4.74,4.86
		c-1.121,1.881-1.68,3.981-1.68,6.3c0,2.321,0.459,4.5,1.38,6.54c0.919,2.04,2.179,3.821,3.78,5.34c1.6,1.521,3.479,2.7,5.64,3.54
		S871.112,95.037,873.592,95.037z"/>
	<path fill="#231F20" d="M970.071,96.237h-2.4v-34.68c0-9.12-1.26-15.759-3.78-19.92c-2.52-4.159-6.581-6.24-12.18-6.24
		c-3.041,0-6.021,0.54-8.94,1.62c-2.921,1.08-5.621,2.58-8.1,4.5c-2.48,1.92-4.641,4.2-6.48,6.84c-1.841,2.64-3.2,5.48-4.079,8.52
		v39.36h-2.4v-62.28h2.4v16.08c1.278-2.479,2.919-4.779,4.92-6.9c1.998-2.119,4.199-3.918,6.6-5.4c2.4-1.479,4.959-2.64,7.68-3.48
		c2.719-0.84,5.479-1.26,8.28-1.26c6.399,0,11.079,2.301,14.04,6.9c2.959,4.601,4.44,11.82,4.44,21.66V96.237z"/>
	<path fill="#231F20" d="M1014.949,97.438c-4.319,0-8.32-0.921-12-2.76s-6.86-4.279-9.539-7.32c-2.682-3.04-4.761-6.48-6.24-10.32
		c-1.481-3.84-2.221-7.759-2.221-11.76c0-4.32,0.721-8.419,2.16-12.3c1.44-3.879,3.46-7.3,6.061-10.26
		c2.599-2.958,5.658-5.319,9.18-7.08c3.52-1.759,7.359-2.64,11.521-2.64c2.88,0,5.579,0.42,8.1,1.26c2.52,0.84,4.86,1.961,7.02,3.36
		c2.16,1.401,4.1,3.042,5.82,4.92c1.72,1.881,3.22,3.861,4.5,5.94V8.637h2.4v82.8c0,1.601,0.639,2.4,1.92,2.4v2.4
		c-0.72,0-1.241-0.079-1.561-0.24c-0.881-0.399-1.56-1.02-2.04-1.86c-0.479-0.84-0.72-1.74-0.72-2.7v-8.16
		c-1.361,2.081-2.939,3.98-4.74,5.7c-1.8,1.721-3.761,3.221-5.88,4.5c-2.12,1.28-4.341,2.261-6.66,2.94
		C1019.708,97.096,1017.349,97.438,1014.949,97.438z M1014.949,95.037c2.4,0,4.999-0.519,7.801-1.56
		c2.799-1.039,5.399-2.419,7.8-4.14c2.399-1.719,4.419-3.739,6.06-6.06c1.639-2.319,2.539-4.759,2.7-7.32v-22.44
		c-0.881-2.479-2.24-4.818-4.08-7.02c-1.841-2.199-3.921-4.119-6.24-5.76c-2.321-1.639-4.8-2.94-7.439-3.9s-5.201-1.44-7.68-1.44
		c-4.08,0-7.74,0.86-10.98,2.58c-3.24,1.721-6.021,3.98-8.34,6.78c-2.321,2.801-4.101,6-5.34,9.6c-1.241,3.6-1.86,7.241-1.86,10.92
		c0,3.92,0.72,7.661,2.16,11.22c1.439,3.561,3.399,6.72,5.88,9.48c2.479,2.76,5.4,4.961,8.76,6.6
		C1007.509,94.218,1011.109,95.037,1014.949,95.037z"/>
</g>
<g>
</g>
<g>
</g>
<g>
</g>
<g>
</g>
<g>
</g>
<g>
</g>
<g>
</g>
<g>
</g>
<g>
</g>
<g>
</g>
<g>
</g>
<g>
</g>
<g>
</g>
<g>
</g>
<g>
</g>
</svg>
